<svg width="241" height="241" viewBox="0 0 241 241" fill="none" xmlns="http://www.w3.org/2000/svg">
<circle cx="120.5" cy="120.5" r="120.5" fill="url(#paint0_linear_92_8)"/>
<path d="M42.48 150V98L47.04 102.72H30.64V94H52.88V150H42.48ZM82.8688 93.2C87.9888 93.2 92.3354 94.2933 95.9088 96.48C99.5354 98.6133 102.309 101.733 104.229 105.84C106.149 109.947 107.109 115.013 107.109 121.04C107.109 127.44 105.935 132.853 103.589 137.28C101.295 141.707 98.0954 145.067 93.9888 147.36C89.8821 149.653 85.1088 150.8 79.6688 150.8C76.8421 150.8 74.1488 150.507 71.5888 149.92C69.0288 149.333 66.8154 148.427 64.9488 147.2L68.7888 139.36C70.3354 140.373 72.0154 141.093 73.8288 141.52C75.6421 141.893 77.5088 142.08 79.4288 142.08C84.7088 142.08 88.8954 140.453 91.9888 137.2C95.0821 133.947 96.6288 129.147 96.6288 122.8C96.6288 121.787 96.6021 120.613 96.5488 119.28C96.4954 117.893 96.3088 116.507 95.9888 115.12L99.1888 118.64C98.2821 120.827 96.9754 122.667 95.2688 124.16C93.5621 125.6 91.5621 126.693 89.2688 127.44C86.9754 128.187 84.4421 128.56 81.6688 128.56C78.0421 128.56 74.7621 127.867 71.8288 126.48C68.9488 125.04 66.6554 123.04 64.9488 120.48C63.2421 117.867 62.3888 114.827 62.3888 111.36C62.3888 107.627 63.2954 104.427 65.1088 101.76C66.9221 99.04 69.3754 96.9333 72.4688 95.44C75.6154 93.9467 79.0821 93.2 82.8688 93.2ZM83.4288 101.36C81.2954 101.36 79.4021 101.76 77.7488 102.56C76.0954 103.307 74.7888 104.4 73.8288 105.84C72.9221 107.227 72.4688 108.907 72.4688 110.88C72.4688 113.813 73.4821 116.133 75.5088 117.84C77.5354 119.547 80.2554 120.4 83.6688 120.4C85.9088 120.4 87.8821 120 89.5888 119.2C91.2954 118.347 92.6288 117.2 93.5888 115.76C94.5488 114.267 95.0288 112.613 95.0288 110.8C95.0288 109.04 94.5754 107.467 93.6688 106.08C92.7621 104.64 91.4554 103.493 89.7488 102.64C88.0421 101.787 85.9354 101.36 83.4288 101.36ZM133.025 93.2C138.145 93.2 142.492 94.2933 146.065 96.48C149.692 98.6133 152.465 101.733 154.385 105.84C156.305 109.947 157.265 115.013 157.265 121.04C157.265 127.44 156.092 132.853 153.745 137.28C151.452 141.707 148.252 145.067 144.145 147.36C140.038 149.653 135.265 150.8 129.825 150.8C126.998 150.8 124.305 150.507 121.745 149.92C119.185 149.333 116.972 148.427 115.105 147.2L118.945 139.36C120.492 140.373 122.172 141.093 123.985 141.52C125.798 141.893 127.665 142.08 129.585 142.08C134.865 142.08 139.052 140.453 142.145 137.2C145.238 133.947 146.785 129.147 146.785 122.8C146.785 121.787 146.758 120.613 146.705 119.28C146.652 117.893 146.465 116.507 146.145 115.12L149.345 118.64C148.438 120.827 147.132 122.667 145.425 124.16C143.718 125.6 141.718 126.693 139.425 127.44C137.132 128.187 134.598 128.56 131.825 128.56C128.198 128.56 124.918 127.867 121.985 126.48C119.105 125.04 116.812 123.04 115.105 120.48C113.398 117.867 112.545 114.827 112.545 111.36C112.545 107.627 113.452 104.427 115.265 101.76C117.078 99.04 119.532 96.9333 122.625 95.44C125.772 93.9467 129.238 93.2 133.025 93.2ZM133.585 101.36C131.452 101.36 129.558 101.76 127.905 102.56C126.252 103.307 124.945 104.4 123.985 105.84C123.078 107.227 122.625 108.907 122.625 110.88C122.625 113.813 123.638 116.133 125.665 117.84C127.692 119.547 130.412 120.4 133.825 120.4C136.065 120.4 138.038 120 139.745 119.2C141.452 118.347 142.785 117.2 143.745 115.76C144.705 114.267 145.185 112.613 145.185 110.8C145.185 109.04 144.732 107.467 143.825 106.08C142.918 104.64 141.612 103.493 139.905 102.64C138.198 101.787 136.092 101.36 133.585 101.36ZM163.501 137.28V130.08L191.101 94H202.221L175.021 130.08L169.821 128.48H214.221V137.28H163.501ZM194.221 150V137.28L194.541 128.48V117.2H204.301V150H194.221Z" fill="white"/>
<defs>
<linearGradient id="paint0_linear_92_8" x1="120.5" y1="0" x2="120.5" y2="241" gradientUnits="userSpaceOnUse">
<stop stop-color="#EB810A"/>
<stop offset="1" stop-color="#F3BF1B"/>
</linearGradient>
</defs>
</svg>
