<svg width="241" height="241" viewBox="0 0 241 241" fill="none" xmlns="http://www.w3.org/2000/svg">
<circle cx="120.5" cy="120.5" r="120.5" fill="url(#paint0_linear_92_10)"/>
<path d="M91.12 150.8C87.1733 150.8 83.3067 150.24 79.52 149.12C75.7867 147.947 72.64 146.347 70.08 144.32L74.56 136.24C76.5867 137.893 79.04 139.227 81.92 140.24C84.8 141.253 87.8133 141.76 90.96 141.76C94.6933 141.76 97.6 141.013 99.68 139.52C101.76 137.973 102.8 135.893 102.8 133.28C102.8 130.72 101.84 128.693 99.92 127.2C98 125.707 94.9067 124.96 90.64 124.96H85.52V117.84L101.52 98.8L102.88 102.72H72.8V94H110.96V100.96L94.96 120L89.52 116.8H92.64C99.52 116.8 104.667 118.347 108.08 121.44C111.547 124.48 113.28 128.4 113.28 133.2C113.28 136.347 112.48 139.253 110.88 141.92C109.28 144.587 106.827 146.747 103.52 148.4C100.267 150 96.1333 150.8 91.12 150.8ZM143.443 150.8C139.016 150.8 135.016 149.68 131.443 147.44C127.923 145.2 125.149 141.947 123.123 137.68C121.096 133.36 120.083 128.133 120.083 122C120.083 115.867 121.096 110.667 123.123 106.4C125.149 102.08 127.923 98.8 131.443 96.56C135.016 94.32 139.016 93.2 143.443 93.2C147.923 93.2 151.923 94.32 155.443 96.56C158.963 98.8 161.736 102.08 163.763 106.4C165.843 110.667 166.883 115.867 166.883 122C166.883 128.133 165.843 133.36 163.763 137.68C161.736 141.947 158.963 145.2 155.443 147.44C151.923 149.68 147.923 150.8 143.443 150.8ZM143.443 141.76C146.056 141.76 148.323 141.067 150.243 139.68C152.163 138.24 153.656 136.053 154.723 133.12C155.843 130.187 156.403 126.48 156.403 122C156.403 117.467 155.843 113.76 154.723 110.88C153.656 107.947 152.163 105.787 150.243 104.4C148.323 102.96 146.056 102.24 143.443 102.24C140.936 102.24 138.696 102.96 136.723 104.4C134.803 105.787 133.283 107.947 132.163 110.88C131.096 113.76 130.563 117.467 130.563 122C130.563 126.48 131.096 130.187 132.163 133.12C133.283 136.053 134.803 138.24 136.723 139.68C138.696 141.067 140.936 141.76 143.443 141.76Z" fill="white"/>
<defs>
<linearGradient id="paint0_linear_92_10" x1="120.5" y1="0" x2="120.5" y2="241" gradientUnits="userSpaceOnUse">
<stop stop-color="#EB810A"/>
<stop offset="1" stop-color="#F3BF1B"/>
</linearGradient>
</defs>
</svg>
