<svg width="241" height="241" viewBox="0 0 241 241" fill="none" xmlns="http://www.w3.org/2000/svg">
<circle cx="120.5" cy="120.5" r="120.5" fill="url(#paint0_linear_92_11)"/>
<path d="M66.08 150.8C62.1333 150.8 58.2667 150.24 54.48 149.12C50.7467 147.947 47.6 146.347 45.04 144.32L49.44 136.24C51.4667 137.893 53.92 139.227 56.8 140.24C59.7333 141.253 62.7733 141.76 65.92 141.76C69.6 141.76 72.48 140.987 74.56 139.44C76.6933 137.893 77.76 135.813 77.76 133.2C77.76 131.44 77.3067 129.893 76.4 128.56C75.5467 127.227 74 126.213 71.76 125.52C69.5733 124.827 66.56 124.48 62.72 124.48H49.2L52.08 94H84.96V102.72H55.92L61.36 97.76L59.2 120.56L53.76 115.68H65.04C70.5867 115.68 75.04 116.427 78.4 117.92C81.8133 119.36 84.2933 121.387 85.84 124C87.44 126.56 88.24 129.493 88.24 132.8C88.24 136.053 87.44 139.04 85.84 141.76C84.24 144.48 81.7867 146.667 78.48 148.32C75.2267 149.973 71.0933 150.8 66.08 150.8ZM117.599 150.8C113.172 150.8 109.172 149.68 105.599 147.44C102.079 145.2 99.3054 141.947 97.2788 137.68C95.2521 133.36 94.2388 128.133 94.2388 122C94.2388 115.867 95.2521 110.667 97.2788 106.4C99.3054 102.08 102.079 98.8 105.599 96.56C109.172 94.32 113.172 93.2 117.599 93.2C122.079 93.2 126.079 94.32 129.599 96.56C133.119 98.8 135.892 102.08 137.919 106.4C139.999 110.667 141.039 115.867 141.039 122C141.039 128.133 139.999 133.36 137.919 137.68C135.892 141.947 133.119 145.2 129.599 147.44C126.079 149.68 122.079 150.8 117.599 150.8ZM117.599 141.76C120.212 141.76 122.479 141.067 124.399 139.68C126.319 138.24 127.812 136.053 128.879 133.12C129.999 130.187 130.559 126.48 130.559 122C130.559 117.467 129.999 113.76 128.879 110.88C127.812 107.947 126.319 105.787 124.399 104.4C122.479 102.96 120.212 102.24 117.599 102.24C115.092 102.24 112.852 102.96 110.879 104.4C108.959 105.787 107.439 107.947 106.319 110.88C105.252 113.76 104.719 117.467 104.719 122C104.719 126.48 105.252 130.187 106.319 133.12C107.439 136.053 108.959 138.24 110.879 139.68C112.852 141.067 115.092 141.76 117.599 141.76ZM171.427 150.8C167 150.8 163 149.68 159.427 147.44C155.907 145.2 153.134 141.947 151.107 137.68C149.08 133.36 148.067 128.133 148.067 122C148.067 115.867 149.08 110.667 151.107 106.4C153.134 102.08 155.907 98.8 159.427 96.56C163 94.32 167 93.2 171.427 93.2C175.907 93.2 179.907 94.32 183.427 96.56C186.947 98.8 189.72 102.08 191.747 106.4C193.827 110.667 194.867 115.867 194.867 122C194.867 128.133 193.827 133.36 191.747 137.68C189.72 141.947 186.947 145.2 183.427 147.44C179.907 149.68 175.907 150.8 171.427 150.8ZM171.427 141.76C174.04 141.76 176.307 141.067 178.227 139.68C180.147 138.24 181.64 136.053 182.707 133.12C183.827 130.187 184.387 126.48 184.387 122C184.387 117.467 183.827 113.76 182.707 110.88C181.64 107.947 180.147 105.787 178.227 104.4C176.307 102.96 174.04 102.24 171.427 102.24C168.92 102.24 166.68 102.96 164.707 104.4C162.787 105.787 161.267 107.947 160.147 110.88C159.08 113.76 158.547 117.467 158.547 122C158.547 126.48 159.08 130.187 160.147 133.12C161.267 136.053 162.787 138.24 164.707 139.68C166.68 141.067 168.92 141.76 171.427 141.76Z" fill="white"/>
<defs>
<linearGradient id="paint0_linear_92_11" x1="120.5" y1="0" x2="120.5" y2="241" gradientUnits="userSpaceOnUse">
<stop stop-color="#EB810A"/>
<stop offset="1" stop-color="#F3BF1B"/>
</linearGradient>
</defs>
</svg>
